<?xml version="1.0" encoding="utf-8"?>
<!-- Generator: Adobe Illustrator 16.0.3, SVG Export Plug-In . SVG Version: 6.00 Build 0)  -->
<!DOCTYPE svg PUBLIC "-//W3C//DTD SVG 1.1//EN" "http://www.w3.org/Graphics/SVG/1.1/DTD/svg11.dtd">
<svg version="1.1" id="Layer_1" xmlns="http://www.w3.org/2000/svg" xmlns:xlink="http://www.w3.org/1999/xlink" x="0px" y="0px"
	 width="400px" height="400px" viewBox="0 0 400 400" enable-background="new 0 0 400 400" xml:space="preserve">
<g id="junk" display="none">
</g>
<g id="_x32_4_x__x_24_field" display="none">
	
		<rect x="139.091" y="229.091" display="inline" opacity="0.3" fill="#FFD0F7" enable-background="new    " width="333.815" height="333.818"/>
</g>
<g id="dark_background" display="none">
	<rect x="-1098.818" y="-3665.455" display="inline" fill="#414042" width="5452.363" height="11864.455"/>
</g>
<g id="labels">
</g>
<g id="Black" display="none">
	<g display="inline">
		<path fill="#231F20" d="M291.256,485.992c-29.974,0-58.153-11.67-79.354-32.867c-21.195-21.198-32.865-49.377-32.865-79.352
			c0-29.976,11.67-58.154,32.865-79.354c21.198-21.195,49.38-32.865,79.354-32.865c29.975,0,58.152,11.67,79.352,32.865
			c43.758,43.76,43.758,114.945,0,158.703C349.408,474.322,321.23,485.992,291.256,485.992z M291.256,275.464
			c-26.26,0-50.949,10.224-69.52,28.792c-18.566,18.568-28.792,43.258-28.792,69.518c0,26.262,10.226,50.949,28.792,69.52
			c18.568,18.569,43.26,28.792,69.52,28.792c26.261,0,50.947-10.224,69.518-28.792c38.334-38.334,38.334-100.702,0-139.035
			C342.203,285.688,317.517,275.464,291.256,275.464z"/>
		
			<rect x="369.651" y="478.344" transform="matrix(-0.7071 -0.7071 0.7071 -0.7071 351.4124 1130.0647)" fill="#231F20" width="80.199" height="27.817"/>
	</g>
</g>
<g id="_x35_0_x25__black" display="none">
	<g display="inline">
		<path fill="#939598" d="M291.256,485.992c-29.974,0-58.153-11.67-79.354-32.867c-21.195-21.198-32.865-49.377-32.865-79.352
			c0-29.976,11.67-58.154,32.865-79.354c21.198-21.195,49.38-32.865,79.354-32.865c29.975,0,58.152,11.67,79.352,32.865
			c43.758,43.76,43.758,114.945,0,158.703C349.408,474.322,321.23,485.992,291.256,485.992z M291.256,275.464
			c-26.26,0-50.949,10.224-69.52,28.792c-18.566,18.568-28.792,43.258-28.792,69.518c0,26.262,10.226,50.949,28.792,69.52
			c18.568,18.569,43.26,28.792,69.52,28.792c26.261,0,50.947-10.224,69.518-28.792c38.334-38.334,38.334-100.702,0-139.035
			C342.203,285.688,317.517,275.464,291.256,275.464z"/>
		
			<rect x="369.651" y="478.344" transform="matrix(-0.7071 -0.7071 0.7071 -0.7071 351.4124 1130.0647)" fill="#939598" width="80.199" height="27.817"/>
	</g>
</g>
<g id="_x33_0_x25__black" display="none">
</g>
<g id="_x32_0_x25__black" display="none">
</g>
<g id="Blue" display="none">
	<g display="inline">
		<path fill="#00B0DA" d="M291.256,485.992c-29.974,0-58.153-11.67-79.354-32.867c-21.195-21.198-32.865-49.377-32.865-79.352
			c0-29.976,11.67-58.154,32.865-79.354c21.198-21.195,49.38-32.865,79.354-32.865c29.975,0,58.152,11.67,79.352,32.865
			c43.758,43.76,43.758,114.945,0,158.703C349.408,474.322,321.23,485.992,291.256,485.992z M291.256,275.464
			c-26.26,0-50.949,10.224-69.52,28.792c-18.566,18.568-28.792,43.258-28.792,69.518c0,26.262,10.226,50.949,28.792,69.52
			c18.568,18.569,43.26,28.792,69.52,28.792c26.261,0,50.947-10.224,69.518-28.792c38.334-38.334,38.334-100.702,0-139.035
			C342.203,285.688,317.517,275.464,291.256,275.464z"/>
		
			<rect x="369.651" y="478.344" transform="matrix(-0.7071 -0.7071 0.7071 -0.7071 351.4124 1130.0647)" fill="#00B0DA" width="80.199" height="27.817"/>
	</g>
</g>
<g id="yellow" display="none">
</g>
<g id="green" display="none">
</g>
<g id="red" display="none">
</g>
<g id="White">
	<g>
		<path d="M178.256,289.992c-29.974,0-58.153-11.67-79.354-32.867c-21.195-21.198-32.865-49.377-32.865-79.352
			s11.67-58.154,32.865-79.353c21.198-21.196,49.38-32.866,79.354-32.866c29.975,0,58.153,11.67,79.352,32.866
			c43.758,43.759,43.758,114.945,0,158.703C236.409,278.322,208.23,289.992,178.256,289.992z M178.256,79.464
			c-26.26,0-50.949,10.224-69.52,28.792c-18.566,18.568-28.792,43.258-28.792,69.518c0,26.261,10.226,50.949,28.792,69.519
			c18.568,18.568,43.26,28.792,69.52,28.792c26.261,0,50.948-10.224,69.518-28.792c38.334-38.334,38.334-100.702,0-139.035
			C229.204,89.688,204.517,79.464,178.256,79.464z"/>
		
			<rect x="256.651" y="282.346" transform="matrix(-0.7071 -0.7071 0.7071 -0.7071 297.0973 715.572)" width="80.198" height="27.816"/>
	</g>
</g>
</svg>
