<svg width="44" height="44" xmlns="http://www.w3.org/2000/svg">

 <g>
  <title>background</title>
  <rect fill="none" id="canvas_background" height="46" width="46" y="-1" x="-1"/>
 </g>
 <g>
  <title>Layer 1</title>
  <g id="Guides_For_Artboard"/>
  <g id="_x30_"/>
  <g id="_x31_"/>
  <g id="_x32_"/>
  <g id="_x33_"/>
  <g id="_x34_"/>
  <g id="_x35_"/>
  <g id="_x36_"/>
  <g id="_x37_"/>
  <g id="_x38_"/>
  <g id="_x39_"/>
  <g id="_x31_0"/>
  <g id="_x31_1"/>
  <g id="_x31_2"/>
  <g id="_x31_3"/>
  <g id="_x31_4"/>
  <g stroke="null" id="_x31_5">
   <g stroke="null" id="svg_1">
    <path stroke="null" id="svg_2" d="m26.451543,16.272145l0.312559,0c0.47501,0 0.860055,-0.38518 0.860055,-0.860055l0,-2.373385l0,-0.887761c0,-0.474875 -0.385045,-0.86001 -0.860055,-0.86001l-0.312559,0c-0.474965,0 -0.86001,0.385135 -0.86001,0.86001l0,0.887806l0,2.37334c0,0.474875 0.385045,0.860055 0.86001,0.860055z" fill="#14A8DA"/>
    <path stroke="null" id="svg_3" d="m37.482923,16.250837l0.312559,0c0.474965,0 0.86001,-0.385135 0.86001,-0.860055l0,-2.577328l0,-0.683864c0,-0.47483 -0.385045,-0.859965 -0.86001,-0.859965l-0.312559,0c-0.47501,0 -0.860055,0.385135 -0.860055,0.859965l0,0.683864l0,2.577283c0.000045,0.474965 0.38509,0.860101 0.860055,0.860101z" fill="#14A8DA"/>
    <path stroke="null" id="svg_4" d="m41.561913,13.038704l-2.207285,0l0,2.577283c0,0.85974 -0.699406,1.33394 -1.559101,1.33394l-0.312559,0c-0.85974,0 -1.559146,-0.699451 -1.559146,-1.559191l0,-2.352032l-7.600528,0l0,2.37334c0,0.85974 -0.699406,1.559191 -1.559146,1.559191l-0.312559,0c-0.859695,0 -1.559101,-0.699451 -1.559101,-1.559191l0,-2.37334l-2.381449,0c-0.770946,0 -1.398181,0.627235 -1.398181,1.398226l0,16.895218c0,0.770991 0.627235,1.398226 1.398181,1.398226l19.050875,0c0.770946,0 1.398181,-0.627235 1.398181,-1.398226l0,-16.895218c0.000045,-0.770946 -0.62719,-1.398226 -1.398181,-1.398226zm0,18.293444l-19.05083,0l-0.000045,-12.758834l19.0511,0l0.000721,12.758788c-0.000045,0 -0.00036,0.000045 -0.000946,0.000045z" fill="#14A8DA"/>
    <path stroke="null" id="svg_5" d="m32.758271,22.853005l2.510474,0c0.099516,0 0.180201,-0.080685 0.180201,-0.180201l0,-2.173903c0,-0.099516 -0.080685,-0.180201 -0.180201,-0.180201l-2.510474,0c-0.099516,0 -0.180201,0.080685 -0.180201,0.180201l0,2.173903c0,0.099516 0.080685,0.180201 0.180201,0.180201z" fill="#14A8DA"/>
    <path stroke="null" id="svg_6" d="m36.855372,22.853005l2.510474,0c0.099516,0 0.180201,-0.080685 0.180201,-0.180201l0,-2.173903c0,-0.099516 -0.080685,-0.180201 -0.180201,-0.180201l-2.510474,0c-0.099516,0 -0.180201,0.080685 -0.180201,0.180201l0,2.173903c0,0.099516 0.080685,0.180201 0.180201,0.180201z" fill="#14A8DA"/>
    <path stroke="null" id="svg_7" d="m24.564206,26.411979l2.510474,0c0.099516,0 0.180201,-0.080685 0.180201,-0.180201l0,-2.173903c0,-0.099516 -0.080685,-0.180201 -0.180201,-0.180201l-2.510474,0c-0.099516,0 -0.180201,0.080685 -0.180201,0.180201l0,2.173903c0,0.099516 0.080685,0.180201 0.180201,0.180201z" fill="#14A8DA"/>
    <path stroke="null" id="svg_8" d="m28.661261,26.411979l2.510474,0c0.099516,0 0.180201,-0.080685 0.180201,-0.180201l0,-2.173903c0,-0.099516 -0.080685,-0.180201 -0.180201,-0.180201l-2.510474,0c-0.099516,0 -0.180201,0.080685 -0.180201,0.180201l0,2.173903c0,0.099516 0.080685,0.180201 0.180201,0.180201z" fill="#14A8DA"/>
    <path stroke="null" id="svg_9" d="m32.758316,26.411979l2.510474,0c0.099516,0 0.180201,-0.080685 0.180201,-0.180201l0,-2.173903c0,-0.099516 -0.080685,-0.180201 -0.180201,-0.180201l-2.510474,0c-0.099516,0 -0.180201,0.080685 -0.180201,0.180201l0,2.173903c0,0.099516 0.080685,0.180201 0.180201,0.180201z" fill="#14A8DA"/>
    <path stroke="null" id="svg_10" d="m36.855417,26.411979l2.510474,0c0.099516,0 0.180201,-0.080685 0.180201,-0.180201l0,-2.173903c0,-0.099516 -0.080685,-0.180201 -0.180201,-0.180201l-2.510474,0c-0.099516,0 -0.180201,0.080685 -0.180201,0.180201l0,2.173903c0,0.099516 0.080685,0.180201 0.180201,0.180201z" fill="#14A8DA"/>
    <path stroke="null" id="svg_11" d="m27.074679,27.436648l-2.510429,0c-0.099516,0 -0.180201,0.080685 -0.180201,0.180201l0,2.173903c0,0.099516 0.080685,0.180201 0.180201,0.180201l2.510474,0c0.099516,0 0.180201,-0.080685 0.180201,-0.180201l0,-2.173903c-0.000045,-0.099516 -0.08073,-0.180201 -0.180246,-0.180201z" fill="#14A8DA"/>
    <path stroke="null" id="svg_12" d="m31.17178,27.436648l-2.510474,0c-0.099516,0 -0.180201,0.080685 -0.180201,0.180201l0,2.173903c0,0.099516 0.080685,0.180201 0.180201,0.180201l2.510474,0c0.099516,0 0.180201,-0.080685 0.180201,-0.180201l0,-2.173903c0,-0.099516 -0.080685,-0.180201 -0.180201,-0.180201z" fill="#14A8DA"/>
    <path stroke="null" id="svg_13" d="m35.268835,27.436648l-2.510474,0c-0.099516,0 -0.180201,0.080685 -0.180201,0.180201l0,2.173903c0,0.099516 0.080685,0.180201 0.180201,0.180201l2.510474,0c0.099516,0 0.180201,-0.080685 0.180201,-0.180201l0,-2.173903c0,-0.099516 -0.080685,-0.180201 -0.180201,-0.180201z" fill="#14A8DA"/>
    <path stroke="null" id="svg_14" d="m39.365891,27.436648l-2.510474,0c-0.099516,0 -0.180201,0.080685 -0.180201,0.180201l0,2.173903c0,0.099516 0.080685,0.180201 0.180201,0.180201l2.510474,0c0.099516,0 0.180201,-0.080685 0.180201,-0.180201l0,-2.173903c0,-0.099516 -0.080685,-0.180201 -0.180201,-0.180201z" fill="#14A8DA"/>
   </g>
  </g>
  <g id="_x31_6"/>
  <g id="_x31_7"/>
  <g id="_x31_8"/>
  <g id="_x31_9"/>
  <g id="_x32_0"/>
  <g id="_x32_1"/>
  <g id="_x32_2"/>
  <g id="_x32_3"/>
  <g id="_x32_4"/>
  <g id="_x32_5"/>
  <g id="_x32_6"/>
  <g id="_x32_7"/>
  <g id="_x32_8"/>
  <g id="_x32_9"/>
  <g id="_x33_0"/>
  <g id="_x33_1"/>
  <g id="_x33_2"/>
  <g id="_x33_3"/>
  <g id="_x33_4"/>
  <g id="_x33_5"/>
  <g id="_x33_6"/>
  <g id="_x33_7"/>
  <g id="_x33_8"/>
  <g id="_x33_9"/>
  <g id="_x34_0"/>
  <g id="_x34_1"/>
  <g id="_x34_2"/>
  <g id="_x34_3"/>
  <g id="_x34_4"/>
  <g id="_x34_5"/>
  <g id="_x34_6"/>
  <g id="_x34_7"/>
  <g id="_x34_8"/>
  <g id="_x34_9"/>
  <g id="_x35_0"/>
  <g id="_x35_1"/>
  <g id="_x35_2"/>
  <g id="_x35_3"/>
  <g id="_x35_4"/>
  <g id="_x35_5"/>
  <g id="_x35_6"/>
  <g id="_x35_7"/>
  <g id="_x35_8"/>
  <g id="_x35_9"/>
  <g id="_x36_0"/>
  <g id="_x36_1"/>
  <g id="_x36_2"/>
  <g id="_x36_3"/>
  <g id="_x36_4"/>
  <g id="_x36_5"/>
  <g id="_x36_6"/>
  <g id="_x36_7"/>
  <g id="_x36_8"/>
  <g id="_x36_9"/>
  <g id="_x37_0"/>
 </g>
</svg>