<svg id="Layer_1" data-name="Layer 1" xmlns="http://www.w3.org/2000/svg" viewBox="0 0 14 14"><defs><style>.cls-1{fill:#00B0DA;}</style></defs><title>link</title><path class="cls-1" d="M13.41,2.41L11.62,0.6a2,2,0,0,0-2.87,0l-2,2a2,2,0,0,0,0,2.89L7.88,4.35a1.06,1.06,0,0,1,.31-1L9.46,2a1,1,0,0,1,1.44,0L12,3.13a1,1,0,0,1,0,1.44L10.7,5.84a1.16,1.16,0,0,1-1,.32L8.54,7.27a2,2,0,0,0,2.87,0l2-2A2,2,0,0,0,13.41,2.41Z"/><path class="cls-1" d="M6.14,9.67a1.19,1.19,0,0,1-.33,1.07L4.62,11.92a1,1,0,0,1-1.46,0l-1.1-1.11a1,1,0,0,1,0-1.47L3.25,8.16a1.07,1.07,0,0,1,1.06-.31L5.45,6.7a2.06,2.06,0,0,0-2.93,0L0.61,8.6a2.09,2.09,0,0,0,0,2.94l1.82,1.85a2.07,2.07,0,0,0,2.93,0l1.92-1.91a2.09,2.09,0,0,0,0-2.94Z"/><path class="cls-1" d="M4.89,9.15a0.68,0.68,0,0,0,1,0L9.14,5.82a0.72,0.72,0,0,0,0-1,0.68,0.68,0,0,0-1,0L4.89,8.14A0.72,0.72,0,0,0,4.89,9.15Z"/></svg>