<?xml version="1.0" encoding="utf-8"?>
<!-- Generator: Adobe Illustrator 21.1.0, SVG Export Plug-In . SVG Version: 6.00 Build 0)  -->
<svg version="1.1" xmlns="http://www.w3.org/2000/svg" xmlns:xlink="http://www.w3.org/1999/xlink" x="0px" y="0px"
	 viewBox="0 0 44 44" style="enable-background:new 0 0 44 44;" xml:space="preserve">
<style type="text/css">
	.st0{display:none;}
	.st1{display:inline;}
	.st2{display:inline;fill:none;stroke:#000000;stroke-miterlimit:10;}
	.st3{fill:#BBBDBF;}
	.st4{display:inline;fill:#BBBDBF;}
	.st5{display:inline;fill:none;stroke:#BBBDBF;stroke-miterlimit:10;}
	.st6{fill:#FFFFFF;}
	.st7{display:inline;fill:#231F20;}
	.st8{fill:#231F20;}
	.st9{display:inline;stroke:#000000;stroke-miterlimit:10;}
	.st10{fill:none;stroke:#231F20;stroke-miterlimit:10;}
	.st11{display:inline;fill:#FFFFFF;}
	.st12{fill:#00B0DA;}
	.st13{display:inline;fill:#00B0DA;}
	.st14{fill:#808285;}
	.st15{display:inline;fill:#808285;}
	.st16{fill:none;stroke:#231F20;stroke-width:2;stroke-miterlimit:10;}
	.st17{fill:#008ABF;}
	.st18{display:inline;fill:none;stroke:#231F20;stroke-miterlimit:10;}
	.st19{fill:none;stroke:#FFFFFF;stroke-miterlimit:10;}
	.st20{fill:none;stroke:#00B0DA;stroke-miterlimit:10;}
	.st21{fill:none;stroke:#939598;stroke-miterlimit:10;}
	.st22{display:inline;fill:none;stroke:#FFFFFF;stroke-miterlimit:10;}
	.st23{fill:#929497;}
	.st24{display:inline;fill:#929497;}
	.st25{fill:none;stroke:#FFFFFF;stroke-width:1.1294;stroke-miterlimit:10;}
	.st26{display:inline;fill:none;stroke:#FFFFFF;stroke-width:1.0376;stroke-miterlimit:10;}
	.st27{fill:#A6A8AB;}
	.st28{display:inline;fill:#A6A8AB;}
	.st29{display:inline;fill:#FDB813;}
	.st30{display:inline;fill:#221F1F;}
	.st31{display:inline;fill:none;stroke:#221F1F;stroke-miterlimit:10;}
	.st32{fill:none;stroke:#221F1F;stroke-miterlimit:10;}
	.st33{display:inline;fill:#939598;}
	.st34{fill:none;stroke:#929497;stroke-miterlimit:10;}
	.st35{fill:#939598;}
	.st36{display:inline;fill:#D5D5D5;}
	.st37{fill:none;stroke:#231F20;stroke-linecap:round;stroke-miterlimit:10;}
	.st38{display:inline;fill:none;stroke:#929497;stroke-miterlimit:10;}
	.st39{display:inline;fill:#404041;stroke:#929497;stroke-miterlimit:10;}
	.st40{display:inline;fill:none;stroke:#231F20;stroke-linecap:round;stroke-miterlimit:10;}
	.st41{display:inline;fill:#D5D5D5;stroke:#231F20;stroke-miterlimit:10;}
	.st42{display:inline;fill:#231F20;stroke:#231F20;stroke-width:0.1;stroke-miterlimit:10;}
	.st43{display:inline;fill:none;stroke:#231F20;stroke-width:0.8682;stroke-miterlimit:10;}
	.st44{fill:none;stroke:#231F20;stroke-width:0.8682;stroke-miterlimit:10;}
	.st45{fill:#FFCF01;}
	.st46{display:inline;opacity:0.3;fill:#FFD0F7;}
	.st47{display:inline;fill:#414042;}
	.st48{display:inline;fill:none;stroke:#000000;stroke-width:0.9;stroke-miterlimit:10;}
	.st49{fill:#221F1F;}
	.st50{display:inline;fill:none;stroke:#231F20;stroke-width:0.9;stroke-miterlimit:10;}
	.st51{display:inline;fill:none;stroke:#000000;stroke-width:2;stroke-miterlimit:10;}
	.st52{fill:#414042;}
	.st53{fill:#BCBEC0;}
	.st54{display:inline;fill:#BCBEC0;}
	.st55{display:inline;fill:#D1D3D4;}
	.st56{fill:#FFFFFF;stroke:#00B0DA;stroke-miterlimit:10;}
	.st57{fill:#FDB813;}
	.st58{display:inline;fill:#8CC63F;}
	.st59{display:inline;fill:#F04E37;}
	.st60{fill:#F04E37;}
</style>
<g id="junk" class="st0">
</g>
<g id="_x32_4_x__x_24_field" class="st0">
	<rect x="10" y="9" class="st46" width="24" height="24"/>
</g>
<g id="dark_background" class="st0">
	<rect x="-79" y="-531" class="st47" width="392" height="853"/>
</g>
<g id="labels">
</g>
<g id="Black" class="st0">
</g>
<g id="_x39_0_x25__black" class="st0">
</g>
<g id="_x35_0_x25__black" class="st0">
	<polygon class="st33" points="23,17 18.07,17 19.632,12 23,12 23,13 20.368,13 19.43,16 23,16 	"/>
	<polygon class="st33" points="29,33 15,33 15,14 19,14 19,15 16,15 16,32 28,32 28,15 25,15 25,14 29,14 	"/>
	<polygon class="st33" points="25.93,17 21,17 21,16 24.57,16 23.632,13 21,13 21,12 24.368,12 	"/>
	<polygon class="st33" points="21,28.707 17.646,25.354 18.354,24.646 21,27.293 25.646,22.646 26.354,23.354 	"/>
</g>
<g id="_x33_0_x25__black" class="st0">
	<g class="st1">
		<polygon class="st53" points="23,17 18.07,17 19.632,12 23,12 23,13 20.368,13 19.43,16 23,16 		"/>
		<polygon class="st53" points="29,33 15,33 15,14 19,14 19,15 16,15 16,32 28,32 28,15 25,15 25,14 29,14 		"/>
		<polygon class="st53" points="25.93,17 21,17 21,16 24.57,16 23.632,13 21,13 21,12 24.368,12 		"/>
		<polygon class="st53" points="21,28.707 17.646,25.354 18.354,24.646 21,27.293 25.646,22.646 26.354,23.354 		"/>
	</g>
</g>
<g id="_x32_0_x25__black" class="st0">
</g>
<g id="Blue">
	<polyline class="st12" points="18.143,11.357 13,11.357 13,33.998 31,33.998 31,11.357 25.857,11.357 	"/>
	<polygon class="st56" points="26.343,13.69 17.657,13.69 18.657,9.69 25.343,9.69 	"/>
	<polyline class="st19" points="17,23.855 20.485,27.34 27.5,20.325 	"/>
</g>
<g id="White" class="st0">
</g>
<g id="yellow" class="st0">
</g>
<g id="green" class="st0">
</g>
<g id="red" class="st0">
</g>
</svg>
