<?xml version="1.0" encoding="utf-8"?>
<!-- Generator: Adobe Illustrator 21.1.0, SVG Export Plug-In . SVG Version: 6.00 Build 0)  -->
<svg version="1.1" xmlns="http://www.w3.org/2000/svg" xmlns:xlink="http://www.w3.org/1999/xlink" x="0px" y="0px"
	 viewBox="0 0 44 44" style="enable-background:new 0 0 44 44;" xml:space="preserve">
<style type="text/css">
	.st0{display:none;}
	.st1{display:inline;}
	.st2{display:inline;fill:none;stroke:#000000;stroke-miterlimit:10;}
	.st3{fill:#BBBDBF;}
	.st4{display:inline;fill:#BBBDBF;}
	.st5{display:inline;fill:none;stroke:#BBBDBF;stroke-miterlimit:10;}
	.st6{fill:#FFFFFF;}
	.st7{display:inline;fill:#231F20;}
	.st8{fill:#231F20;}
	.st9{display:inline;stroke:#000000;stroke-miterlimit:10;}
	.st10{fill:none;stroke:#231F20;stroke-miterlimit:10;}
	.st11{display:inline;fill:#FFFFFF;}
	.st12{fill:#00B0DA;}
	.st13{display:inline;fill:#00B0DA;}
	.st14{fill:#808285;}
	.st15{display:inline;fill:#808285;}
	.st16{fill:none;stroke:#231F20;stroke-width:2;stroke-miterlimit:10;}
	.st17{fill:#008ABF;}
	.st18{display:inline;fill:none;stroke:#231F20;stroke-miterlimit:10;}
	.st19{fill:none;stroke:#FFFFFF;stroke-miterlimit:10;}
	.st20{fill:none;stroke:#00B0DA;stroke-miterlimit:10;}
	.st21{fill:none;stroke:#939598;stroke-miterlimit:10;}
	.st22{display:inline;fill:none;stroke:#FFFFFF;stroke-miterlimit:10;}
	.st23{fill:#929497;}
	.st24{display:inline;fill:#929497;}
	.st25{fill:none;stroke:#FFFFFF;stroke-width:1.1294;stroke-miterlimit:10;}
	.st26{display:inline;fill:none;stroke:#FFFFFF;stroke-width:1.0376;stroke-miterlimit:10;}
	.st27{fill:#A6A8AB;}
	.st28{display:inline;fill:#A6A8AB;}
	.st29{display:inline;fill:#FDB813;}
	.st30{display:inline;fill:#221F1F;}
	.st31{display:inline;fill:none;stroke:#221F1F;stroke-miterlimit:10;}
	.st32{fill:none;stroke:#221F1F;stroke-miterlimit:10;}
	.st33{display:inline;fill:#939598;}
	.st34{fill:none;stroke:#929497;stroke-miterlimit:10;}
	.st35{fill:#939598;}
	.st36{display:inline;fill:#D5D5D5;}
	.st37{fill:none;stroke:#231F20;stroke-linecap:round;stroke-miterlimit:10;}
	.st38{display:inline;fill:none;stroke:#929497;stroke-miterlimit:10;}
	.st39{display:inline;fill:#404041;stroke:#929497;stroke-miterlimit:10;}
	.st40{display:inline;fill:none;stroke:#231F20;stroke-linecap:round;stroke-miterlimit:10;}
	.st41{display:inline;fill:#D5D5D5;stroke:#231F20;stroke-miterlimit:10;}
	.st42{display:inline;fill:#231F20;stroke:#231F20;stroke-width:0.1;stroke-miterlimit:10;}
	.st43{display:inline;fill:none;stroke:#231F20;stroke-width:0.8682;stroke-miterlimit:10;}
	.st44{fill:none;stroke:#231F20;stroke-width:0.8682;stroke-miterlimit:10;}
	.st45{fill:#FFCF01;}
	.st46{display:inline;opacity:0.3;fill:#FFD0F7;}
	.st47{display:inline;fill:#414042;}
	.st48{display:inline;fill:none;stroke:#000000;stroke-width:0.9;stroke-miterlimit:10;}
	.st49{fill:#221F1F;}
	.st50{display:inline;fill:none;stroke:#231F20;stroke-width:0.9;stroke-miterlimit:10;}
	.st51{display:inline;fill:none;stroke:#000000;stroke-width:2;stroke-miterlimit:10;}
	.st52{fill:#414042;}
	.st53{fill:#BCBEC0;}
	.st54{display:inline;fill:#BCBEC0;}
	.st55{display:inline;fill:#D1D3D4;}
	.st56{fill:#FFFFFF;stroke:#00B0DA;stroke-miterlimit:10;}
	.st57{fill:#FDB813;}
	.st58{display:inline;fill:#8CC63F;}
	.st59{display:inline;fill:#F04E37;}
	.st60{fill:#F04E37;}
</style>
<g id="junk" class="st0">
</g>
<g id="_x32_4_x__x_24_field" class="st0">
	<rect x="10" y="10" class="st46" width="24" height="24"/>
</g>
<g id="dark_background" class="st0">
	<rect x="-143" y="-595" class="st47" width="392" height="853"/>
</g>
<g id="labels">
</g>
<g id="Black" class="st0">
	<polyline class="st18" points="23,12.5 20,12.5 18.75,16.5 23,16.5 	"/>
	<polyline class="st18" points="19,14.5 15.5,14.5 15.5,32.5 28.5,32.5 28.5,14.5 25,14.5 	"/>
	<polyline class="st18" points="21,12.5 24,12.5 25.25,16.5 21,16.5 	"/>
	<polygon class="st7" points="20.061,27.577 18.258,27.771 18.452,25.968 	"/>
	<rect x="18.599" y="22.43" transform="matrix(0.7071 -0.7071 0.7071 0.7071 -9.9483 22.8422)" class="st7" width="8" height="2"/>
</g>
<g id="_x39_0_x25__black" class="st0">
</g>
<g id="_x35_0_x25__black" class="st0">
	<circle class="st33" cx="21.997" cy="25.482" r="2.199"/>
	<path class="st33" d="M13.503,25c0.252-4.472,3.959-8.036,8.494-8.036s8.242,3.564,8.494,8.036h1
		c-0.253-5.024-4.408-9.036-9.494-9.036S12.756,19.976,12.503,25H13.503z"/>
	<polygon class="st33" points="27,23 34,23 30.5,26.5 	"/>
</g>
<g id="_x33_0_x25__black" class="st0">
</g>
<g id="_x32_0_x25__black" class="st0">
</g>
<g id="Blue">
	<polyline class="st20" points="18.143,11.357 13,11.357 13,33.998 31,33.998 31,11.357 25.857,11.357 	"/>
	<polygon class="st56" points="26.343,13.69 17.657,13.69 18.657,9.69 25.343,9.69 	"/>
	<g>
		<polygon class="st12" points="19.094,29.271 16.475,29.553 16.757,26.934 		"/>
		
			<rect x="16.971" y="21.795" transform="matrix(0.7071 -0.7071 0.7071 0.7071 -9.7659 22.9177)" class="st12" width="11.62" height="2.905"/>
	</g>
</g>
<g id="White" class="st0">
	<circle class="st11" cx="21.997" cy="25.482" r="2.199"/>
	<path class="st11" d="M13.503,25c0.252-4.472,3.959-8.036,8.494-8.036s8.242,3.564,8.494,8.036h1
		c-0.253-5.024-4.408-9.036-9.494-9.036S12.756,19.976,12.503,25H13.503z"/>
	<polygon class="st11" points="27,23.031 34,23.031 30.5,26.531 	"/>
	<circle class="st11" cx="21.997" cy="25.482" r="2.199"/>
	<path class="st11" d="M13.503,25c0.252-4.472,3.959-8.036,8.494-8.036s8.242,3.564,8.494,8.036h1
		c-0.253-5.024-4.408-9.036-9.494-9.036S12.756,19.976,12.503,25H13.503z"/>
	<polygon class="st11" points="27,23.031 34,23.031 30.5,26.531 	"/>
</g>
<g id="yellow" class="st0">
</g>
<g id="green" class="st0">
</g>
<g id="red" class="st0">
</g>
</svg>
